<svg width="256" height="256" viewBox="0 0 256 256" fill="none" xmlns="http://www.w3.org/2000/svg">
<path fill-rule="evenodd" clip-rule="evenodd" d="M177.573 55.8811C204.159 63.0061 221.348 87.5874 220.19 113.994C212.397 108.74 203.045 105.712 193.026 105.712C190.844 105.712 188.662 105.845 186.569 106.112C184.253 89.1014 169.691 76.0092 152.012 76.0092C139.9 76.0092 129.213 82.1991 122.978 91.5506C118.659 90.4374 114.161 89.7249 109.574 89.4577C120.395 63.1397 149.341 48.3108 177.573 55.8811V55.8811Z" fill="#FFC106"/>
<path d="M157.133 24.1749C157.133 21.1023 159.627 18.6085 162.7 18.6085C165.772 18.6085 168.266 21.1023 168.266 24.1749V33.0366C168.266 36.1093 165.772 38.603 162.7 38.603C159.627 38.603 157.133 36.1093 157.133 33.0366V24.1749Z" fill="#FFC106"/>
<path d="M201.531 33.0811C203.089 30.4092 206.474 29.5186 209.146 31.0327C211.773 32.5913 212.664 35.9756 211.15 38.6475L206.697 46.3514C205.138 48.9788 201.754 49.8694 199.126 48.3553C196.454 46.7967 195.564 43.4123 197.078 40.785L201.531 33.0811V33.0811Z" fill="#FFC106"/>
<path d="M235.508 63.0063C238.18 61.4922 241.565 62.3829 243.079 65.0547C244.593 67.6821 243.702 71.0665 241.03 72.5805L233.326 77.0336C230.699 78.5477 227.315 77.6571 225.801 74.9852C224.242 72.3579 225.177 68.9735 227.804 67.4149L235.508 63.0063V63.0063Z" fill="#FFC106"/>
<path d="M249.981 105.845C253.054 105.845 255.548 108.339 255.548 111.412C255.548 114.484 253.054 116.978 249.981 116.978H241.075C238.002 116.978 235.509 114.484 235.509 111.412C235.509 108.339 238.002 105.845 241.075 105.845H249.981Z" fill="#FFC106"/>
<path d="M84.3691 72.5805C81.6973 71.0665 80.8066 67.6821 82.3207 65.0547C83.8347 62.3829 87.2191 61.4922 89.891 63.0063L97.5949 67.4149C100.222 68.9735 101.157 72.3579 99.6434 74.9852C98.0848 77.6571 94.7004 78.5477 92.073 77.0336L84.3691 72.5805V72.5805Z" fill="#FFC106"/>
<path d="M114.25 38.6031C112.736 35.9757 113.671 32.5913 116.298 31.0327C118.97 29.5187 122.355 30.4538 123.869 33.0812L128.322 40.7851C129.836 43.457 128.945 46.8413 126.273 48.3554C123.646 49.8695 120.217 48.9788 118.703 46.307L114.25 38.6031Z" fill="#FFC106"/>
<path fill-rule="evenodd" clip-rule="evenodd" d="M29.7294 225.1C28.8388 224.877 27.9927 224.655 27.102 224.387C27.9927 224.655 28.8388 224.877 29.7294 225.1ZM25.4099 223.809C23.7622 223.185 22.1145 222.473 20.556 221.626C22.1145 222.473 23.7622 223.185 25.4099 223.809ZM20.556 221.626C14.3661 218.242 9.24502 213.121 5.86064 206.931C9.24502 213.121 14.3661 218.242 20.556 221.626ZM5.86064 206.887C5.01455 205.373 4.30205 203.725 3.67861 202.077C4.30205 203.725 5.01455 205.373 5.86064 206.887ZM3.09971 200.341C2.83252 199.494 2.60986 198.648 2.38721 197.758C2.60986 198.648 2.83252 199.494 3.09971 200.341ZM37.2997 152.959C37.745 146.324 39.17 139.912 41.352 133.944C39.17 139.912 37.7895 146.324 37.3442 152.959H37.2997V152.959ZM123.022 91.4171C129.301 82.1101 139.944 75.9648 152.012 75.9648C169.647 75.9648 184.253 89.057 186.524 106.068C188.661 105.801 190.799 105.667 192.981 105.667C219.922 105.667 241.743 127.487 241.743 154.429C241.743 162.311 239.872 169.703 236.577 176.294C232.925 174.379 228.74 173.266 224.286 173.266C221.347 150.332 201.754 132.609 177.974 132.609C175.124 132.609 172.318 132.876 169.602 133.366C161.809 112.837 144.486 97.0726 123.022 91.4171V91.4171Z" fill="#0E6096"/>
<path fill-rule="evenodd" clip-rule="evenodd" d="M37.9678 226.035C17.7951 226.035 1.45215 209.648 1.45215 189.519C1.45215 169.569 17.4389 153.315 37.3443 152.959C39.7045 117.334 69.3623 89.1905 105.611 89.1905C134.868 89.1905 159.805 107.537 169.602 133.365C172.319 132.876 175.124 132.608 177.974 132.608C201.709 132.608 221.347 150.332 224.287 173.265C238.848 173.265 250.649 185.066 250.649 199.628C250.649 214.012 239.205 225.679 224.955 225.99C162.611 226.881 100.312 226.035 37.9678 226.035V226.035Z" fill="#268BD2"/>
</svg>
