<svg
  width="468"
  height="322"
  viewBox="0 0 468 322"
  fill="none"
  xmlns="http://www.w3.org/2000/svg"
>
  <g clip-path="url(#clip0)">
    <path
      opacity="0.18"
      d="M417.657 64.8443C422.128 90.3059 396.568 115.415 404.465 140.007C409.01 154.213 422.645 163.071 434.4 172.208C453.081 186.697 470.318 207.75 467.739 231.251C464.949 256.599 440.814 274.52 416.828 283.163C326.851 315.551 18.743 372.446 0.482926 228.83C-2.99409 201.38 12.7718 174.18 30.4637 152.906C44.5365 135.99 122.923 59.9634 151.574 45.7695C279.201 -17.4782 404.51 -10.1028 417.657 64.8443Z"
      fill="#268BD2"
    />
    <path
      opacity="0.05"
      d="M261.339 28.0867C261.339 28.0867 430.077 26.6151 401.772 95.6471C379.847 149.059 404.902 152.974 412.737 178.805C420.572 204.636 411.453 234.064 392.579 248.007C373.706 261.951 298.171 259.485 298.171 280.128C298.171 300.772 277.15 293.237 277.15 293.237H144.83L168.999 220.347L261.339 28.0867Z"
      fill="#000405"
    />
    <path d="M286.871 285.163H144.83V293.26H286.871V285.163Z" fill="#268BD2" />
    <path
      d="M265.174 220.364H168.999V285.163H265.174V220.364Z"
      fill="#268BD2"
    />
    <path
      d="M265.174 220.364H168.999V285.163H265.174V220.364Z"
      fill="#268BD2"
    />
    <path
      d="M265.174 220.364H168.999V285.163H265.174V220.364Z"
      fill="url(#paint0_linear)"
    />
    <path
      d="M392.579 37.036V206.738C392.579 211.602 391.621 216.419 389.759 220.912C387.897 225.406 385.168 229.488 381.728 232.927C378.288 236.365 374.205 239.092 369.711 240.951C365.216 242.81 360.4 243.766 355.537 243.763H73.7048C63.8865 243.763 54.4703 239.862 47.5277 232.919C40.5851 225.975 36.6848 216.558 36.6848 206.738V37.036C36.6841 32.1731 37.641 27.3577 39.5011 22.8647C41.3611 18.3717 44.0877 14.2891 47.5254 10.85C50.963 7.41084 55.0443 4.68258 59.5362 2.82094C64.028 0.959301 68.8426 0.000743519 73.7048 -2.61024e-06H355.503C360.367 -0.00597537 365.186 0.94683 369.682 2.80397C374.179 4.66111 378.266 7.38619 381.709 10.8235C385.152 14.2608 387.884 18.3429 389.75 22.8367C391.615 27.3305 392.576 32.1478 392.579 37.0133V37.036Z"
      fill="#268BD2"
    />
    <path
      d="M392.579 37.036V197.84H36.7246V37.036C36.7239 32.1731 37.6808 27.3577 39.5408 22.8647C41.4009 18.3717 44.1275 14.2891 47.5652 10.85C51.0028 7.41084 55.0841 4.68258 59.5759 2.82094C64.0678 0.959301 68.8824 0.000743519 73.7446 -2.61024e-06H355.503C360.367 -0.00597537 365.186 0.94683 369.683 2.80397C374.179 4.66111 378.266 7.38619 381.709 10.8235C385.152 14.2608 387.884 18.343 389.75 22.8367C391.615 27.3305 392.576 32.1478 392.579 37.0133V37.036Z"
      fill="url(#paint1_linear)"
    />
    <path
      d="M331.112 33.5529H79.6874V83.1408H331.112V33.5529Z"
      fill="url(#paint2_linear)"
    />
    <path
      d="M193.895 89.4706H79.6874V189.345H193.895V89.4706Z"
      fill="url(#paint3_linear)"
    />
    <path
      d="M329.084 89.4706H201.963V122.825H329.084V89.4706Z"
      fill="url(#paint4_linear)"
    />
    <path
      d="M329.084 129.155H201.963V162.509H329.084V129.155Z"
      fill="url(#paint5_linear)"
    />
    <path
      d="M329.084 168.839H201.963V189.345H329.084V168.839Z"
      fill="url(#paint6_linear)"
    />
    <path
      d="M274.406 308.749H279.832L263.111 98.3802L258.527 99.6132L259.566 113.358L243.09 114.398L241.823 98.3802L237.238 99.6132L253.101 308.749H258.527L256.635 284.884L272.543 283.907L272.304 280.128L256.334 281.111L254.976 264.065L271.304 263.031L271.071 259.264L254.68 260.275L253.328 243.195L269.338 242.178L274.406 308.749ZM243.391 118.148L259.867 117.097L261.163 134.178L244.761 135.234L243.391 118.148ZM245.045 138.979L261.435 137.928L262.731 155.082L246.419 156.105L245.045 138.979ZM246.709 159.849L263.015 158.804L264.401 177.038L248.124 178.026L246.709 159.849ZM248.448 181.782L264.685 180.811L265.89 196.721L249.715 197.738L248.448 181.782ZM250.01 201.511L266.174 200.482L267.469 217.585L251.368 218.602L250.01 201.511ZM253.027 239.45L251.663 222.347L267.759 221.319L269.054 238.433L253.027 239.45Z"
      fill="#268BD2"
    />
    <path
      d="M136.246 111.739V98.3802H132.899V111.739H116.622V115.875H132.899V300.823H136.246V137.411L156.085 115.875H171.277V111.716L136.246 111.739ZM136.246 131.564V115.875H151.336L136.246 131.564Z"
      fill="#268BD2"
    />
    <path
      d="M301.529 111.739V98.3802H298.183V111.739H266.032V115.875H279.991L298.171 135.592V300.823H301.529V115.875H320.698V111.716L301.529 111.739ZM298.183 129.848L284.735 115.875H298.171L298.183 129.848Z"
      fill="#268BD2"
    />
    <g opacity="0.61">
      <path
        opacity="0.61"
        d="M274.406 308.749H279.832L263.111 98.3802L258.527 99.6132L259.566 113.358L243.09 114.398L241.823 98.3802L237.238 99.6132L253.101 308.749H258.527L256.635 284.884L272.543 283.907L272.304 280.128L256.334 281.111L254.976 264.065L271.304 263.031L271.071 259.264L254.68 260.275L253.328 243.195L269.338 242.178L274.406 308.749ZM243.391 118.148L259.867 117.097L261.163 134.178L244.761 135.234L243.391 118.148ZM245.045 138.979L261.435 137.928L262.731 155.082L246.419 156.105L245.045 138.979ZM246.709 159.849L263.015 158.804L264.401 177.038L248.124 178.026L246.709 159.849ZM248.448 181.782L264.685 180.811L265.89 196.721L249.715 197.738L248.448 181.782ZM250.01 201.511L266.174 200.482L267.469 217.585L251.368 218.602L250.01 201.511ZM253.027 239.45L251.663 222.347L267.759 221.319L269.054 238.433L253.027 239.45Z"
        fill="url(#paint7_linear)"
      />
      <path
        opacity="0.61"
        d="M136.246 111.739V98.3802H132.899V111.739H116.622V115.875H132.899V300.823H136.246V137.411L156.085 115.875H171.277V111.716L136.246 111.739ZM136.246 131.564V115.875H151.336L136.246 131.564Z"
        fill="url(#paint8_linear)"
      />
      <path
        opacity="0.61"
        d="M301.529 111.739V98.3802H298.183V111.739H266.032V115.875H279.991L298.171 135.592V300.823H301.529V115.875H320.698V111.716L301.529 111.739ZM298.183 129.848L284.735 115.875H298.171L298.183 129.848Z"
        fill="url(#paint9_linear)"
      />
    </g>
    <path
      d="M266.532 154.309L266.145 157.775H258.14C258.14 157.775 257.487 155.775 258.947 155.275C259.748 154.992 260.573 154.785 261.413 154.656L266.532 154.309Z"
      fill="#B58900"
    />
    <path
      d="M255.368 82.5214C254.999 85.6234 255.191 88.7665 255.936 91.8003C256.382 92.3757 256.974 92.8218 257.65 93.0924C258.326 93.3631 259.062 93.4486 259.782 93.3402V95.6471H263.612L265.248 84.0954C265.248 84.0954 259.22 76.4018 255.368 82.5214Z"
      fill="url(#paint10_linear)"
    />
    <path
      d="M258.066 83.6749C258.67 84.8818 259.054 86.1862 259.203 87.5274C259.203 87.5274 259.97 85.9875 260.339 86.7546C260.708 87.5217 259.572 89.0672 259.572 89.0672L260.708 90.9878H264.6C264.6 90.9878 266.526 82.5612 265.447 81.402C264.367 80.2429 263.64 80.2656 263.64 80.2656C263.64 80.2656 263.64 79.1292 261.328 79.1292C259.015 79.1292 255.942 79.1292 254.788 81.0554C253.635 82.9817 253.249 82.1919 253.249 82.1919C253.249 82.1919 253.902 83.6181 254.902 83.2715C255.141 83.2146 257.68 82.5214 258.066 83.6749Z"
      fill="#333333"
    />
    <path
      d="M259.794 95.6471H266.265C266.265 95.6471 268.997 96.2153 269.378 102.767C269.611 107.243 269.611 111.729 269.378 116.205V126.944L266.265 125.904L254.714 128.484L253.578 112.739C252.38 112.593 251.228 112.187 250.202 111.552C249.176 110.916 248.3 110.065 247.635 109.057C246.794 107.796 246.265 106.353 246.091 104.848C245.918 103.342 246.104 101.817 246.635 100.397L254.675 104.631L255.101 102.358C255.541 99.8948 256.92 97.6989 258.947 96.2324L259.794 95.6471Z"
      fill="#CB4B16"
    />
    <path
      d="M247.709 98.2666L245.789 92.1072L253.447 90.948L256.027 99.3405L254.675 104.631L250.084 102.238L247.709 98.2666Z"
      fill="#FCFDFF"
    />
    <path
      d="M246.17 101.71C246.3 100.422 246.84 99.209 247.709 98.2495L248.096 98.6302H250.544L250.931 100.136L250.044 101.403C249.511 101.852 248.851 102.123 248.156 102.178C247.461 102.233 246.767 102.069 246.17 101.71Z"
      fill="url(#paint11_linear)"
    />
    <path
      d="M250.084 102.238L251.908 107.08L254.675 104.631L250.084 102.238Z"
      fill="url(#paint12_linear)"
    />
    <path
      opacity="0.61"
      d="M253.447 112.466C253.447 112.466 259.634 110.154 259.634 106.307L261.18 123.984L254.629 125.535L253.447 112.466Z"
      fill="url(#paint13_linear)"
    />
    <path
      d="M254.601 125.518L253.447 144.689L254.987 154.696H259.606L260.373 138.183L263.066 131.251L261.146 154.696L266.532 155.082L269.185 123.978L266.145 122.825L254.601 125.518Z"
      fill="#333333"
    />
    <path
      d="M259.373 154.696V158.531L251.254 155.633C251.254 155.633 251.254 153.514 252.828 153.514C253.68 153.509 254.531 153.587 255.368 153.747L259.373 154.696Z"
      fill="#B58900"
    />
    <path
      d="M153.392 306.749L153.79 310.204H161.801C161.801 310.204 162.454 308.204 160.988 307.704C160.19 307.42 159.366 307.215 158.528 307.09L153.392 306.749Z"
      fill="#268BD2"
    />
    <path
      d="M158.954 234.223C160.346 236.996 161.233 239.996 161.573 243.081C161.113 245.274 158.415 245.774 158.415 245.774L159.147 247.968L155.301 249.314L150.063 238.922C150.063 238.922 153.335 229.643 158.954 234.223Z"
      fill="url(#paint14_linear)"
    />
    <path
      d="M156.761 236.189C156.54 237.461 156.54 238.763 156.761 240.035C156.761 240.035 155.528 238.842 155.415 239.689C155.301 240.535 156.875 241.615 156.875 241.615L156.415 243.808L152.915 245.002C152.915 245.002 148.37 237.615 149.063 236.189C149.756 234.762 150.103 234.609 150.103 234.609C150.103 234.609 149.716 233.529 151.909 232.762C154.102 231.995 157.023 231.058 158.727 232.495C160.432 233.933 160.534 233.063 160.534 233.063C160.534 233.063 160.534 234.603 159.301 234.643C159.42 234.802 156.761 234.956 156.761 236.189Z"
      fill="#333333"
    />
    <path
      d="M160.341 248.007H153.875C153.875 248.007 151.142 248.576 150.756 255.127C150.523 259.602 150.523 264.085 150.756 268.56V279.299L153.875 278.259L165.42 280.839L166.556 265.099C167.751 264.903 168.888 264.45 169.892 263.772C170.895 263.094 171.74 262.208 172.368 261.173C173.206 259.91 173.734 258.466 173.908 256.96C174.082 255.454 173.897 253.929 173.368 252.508L165.323 256.741L164.897 254.468C164.455 252.007 163.076 249.814 161.051 248.348L160.341 248.007Z"
      fill="#859900"
    />
    <path
      d="M172.237 250.661L174.158 244.541L166.459 243.388L163.92 251.78L165.306 256.82L169.925 254.513L172.237 250.661Z"
      fill="#FCFDFF"
    />
    <path
      d="M173.771 254.167C173.646 252.876 173.106 251.659 172.232 250.701L171.851 251.087H169.425L169.039 252.587L169.925 253.854C170.455 254.298 171.11 254.566 171.799 254.622C172.487 254.678 173.177 254.519 173.771 254.167Z"
      fill="url(#paint15_linear)"
    />
    <path
      opacity="0.61"
      d="M166.459 265.02C166.459 265.02 160.301 262.713 160.301 258.86L160.801 279.725L165.306 280.725L166.459 265.02Z"
      fill="url(#paint16_linear)"
    />
    <path
      d="M165.306 277.952L166.459 297.124L164.96 307.13H160.341L159.574 290.618L156.875 283.685L158.801 307.13L153.415 307.516L150.722 276.412L153.796 275.259L165.306 277.952Z"
      fill="#333333"
    />
    <path
      d="M160.573 307.13V309.829L168.999 309.443C168.999 309.443 168.618 306.749 167.079 306.749C166.247 306.774 165.424 306.578 164.693 306.181L160.573 307.13Z"
      fill="#268BD2"
    />
    <path
      d="M296.706 82.9192H277.037C274.353 82.9177 271.779 81.8502 269.881 79.9515C267.984 78.0527 266.918 75.4781 266.918 72.7936V68.4809C266.918 65.797 267.984 63.2229 269.882 61.3251C271.779 59.4273 274.353 58.3611 277.037 58.3611H296.706C298.034 58.3603 299.35 58.6213 300.578 59.1292C301.806 59.6371 302.922 60.3819 303.862 61.3211C304.802 62.2603 305.548 63.3754 306.058 64.603C306.567 65.8305 306.829 67.1463 306.83 68.4752V72.788C306.83 74.1177 306.568 75.4344 306.059 76.6628C305.551 77.8913 304.805 79.0076 303.865 79.9478C302.925 80.888 301.808 81.6339 300.58 82.1427C299.352 82.6516 298.035 82.9135 296.706 82.9135V82.9192Z"
      fill="white"
    />
    <path
      d="M269.185 88.2547C269.185 88.2547 277.23 88.6411 279.156 82.868H285.121C285.121 82.868 281.122 90.1809 269.185 88.2547Z"
      fill="white"
    />
    <path
      opacity="0.15"
      d="M273.73 62.1567H300.751C300.935 62.1567 301.111 62.2297 301.241 62.3597C301.371 62.4897 301.444 62.6661 301.444 62.8499V63.4181C301.444 63.602 301.371 63.7783 301.241 63.9083C301.111 64.0383 300.935 64.1114 300.751 64.1114H273.73C273.639 64.1114 273.549 64.0934 273.465 64.0586C273.381 64.0237 273.304 63.9727 273.24 63.9083C273.176 63.8439 273.124 63.7675 273.09 63.6834C273.055 63.5993 273.037 63.5092 273.037 63.4181V62.8499C273.037 62.7589 273.055 62.6687 273.09 62.5846C273.124 62.5005 273.176 62.4241 273.24 62.3597C273.304 62.2954 273.381 62.2443 273.465 62.2095C273.549 62.1746 273.639 62.1567 273.73 62.1567Z"
      fill="#020202"
    />
    <path
      opacity="0.15"
      d="M273.73 66.7763H300.751C300.935 66.7763 301.111 66.8493 301.241 66.9793C301.371 67.1093 301.444 67.2856 301.444 67.4695V68.0377C301.444 68.2216 301.371 68.3979 301.241 68.5279C301.111 68.6579 300.935 68.7309 300.751 68.7309H273.73C273.639 68.7309 273.549 68.713 273.465 68.6782C273.381 68.6433 273.304 68.5923 273.24 68.5279C273.176 68.4635 273.124 68.3871 273.09 68.303C273.055 68.2189 273.037 68.1287 273.037 68.0377V67.4695C273.037 67.3785 273.055 67.2883 273.09 67.2042C273.124 67.1201 273.176 67.0437 273.24 66.9793C273.304 66.9149 273.381 66.8639 273.465 66.829C273.549 66.7942 273.639 66.7763 273.73 66.7763Z"
      fill="#020202"
    />
    <path
      opacity="0.15"
      d="M273.73 71.3561H300.751C300.935 71.3561 301.111 71.4291 301.241 71.5591C301.371 71.6891 301.444 71.8654 301.444 72.0493V72.6175C301.444 72.7085 301.426 72.7987 301.391 72.8828C301.356 72.9669 301.305 73.0433 301.241 73.1077C301.177 73.172 301.1 73.2231 301.016 73.2579C300.932 73.2928 300.842 73.3107 300.751 73.3107H273.73C273.639 73.3107 273.549 73.2928 273.465 73.2579C273.381 73.2231 273.304 73.172 273.24 73.1077C273.176 73.0433 273.124 72.9669 273.09 72.8828C273.055 72.7987 273.037 72.7085 273.037 72.6175V72.0493C273.037 71.9582 273.055 71.8681 273.09 71.784C273.124 71.6999 273.176 71.6235 273.24 71.5591C273.304 71.4947 273.381 71.4437 273.465 71.4088C273.549 71.374 273.639 71.3561 273.73 71.3561Z"
      fill="#020202"
    />
    <path
      opacity="0.15"
      d="M273.73 75.9756H288.462C288.645 75.9771 288.82 76.0508 288.948 76.1807C289.077 76.3105 289.149 76.486 289.149 76.6688V77.2371C289.149 77.4199 289.077 77.5954 288.948 77.7252C288.82 77.8551 288.645 77.9288 288.462 77.9303H273.73C273.639 77.9303 273.549 77.9123 273.465 77.8775C273.381 77.8427 273.304 77.7916 273.24 77.7272C273.176 77.6629 273.124 77.5865 273.09 77.5023C273.055 77.4182 273.037 77.3281 273.037 77.2371V76.6688C273.037 76.5778 273.055 76.4877 273.09 76.4036C273.124 76.3195 273.176 76.243 273.24 76.1787C273.304 76.1143 273.381 76.0632 273.465 76.0284C273.549 75.9936 273.639 75.9756 273.73 75.9756Z"
      fill="#020202"
    />
    <path
      d="M117.389 236.456H137.058C139.704 236.449 142.242 235.405 144.127 233.548C146.013 231.691 147.095 229.169 147.143 226.523V222.023C147.143 219.339 146.077 216.765 144.179 214.867C142.281 212.969 139.708 211.903 137.024 211.903H117.389C114.704 211.903 112.129 212.97 110.23 214.869C108.332 216.768 107.265 219.343 107.265 222.029V226.529C107.317 229.18 108.407 231.705 110.3 233.561C112.193 235.417 114.738 236.456 117.389 236.456Z"
      fill="white"
    />
    <path
      d="M144.83 241.922C144.83 241.922 136.785 242.308 134.859 236.535H128.962C128.962 236.535 132.791 243.763 144.83 241.922Z"
      fill="white"
    />
    <path
      opacity="0.15"
      d="M140.291 217.625H113.27C113.086 217.625 112.91 217.552 112.78 217.422C112.65 217.292 112.577 217.116 112.577 216.932V216.392C112.577 216.208 112.65 216.032 112.78 215.902C112.91 215.772 113.086 215.699 113.27 215.699H140.291C140.475 215.699 140.651 215.772 140.781 215.902C140.911 216.032 140.984 216.208 140.984 216.392V216.932C140.984 217.116 140.911 217.292 140.781 217.422C140.651 217.552 140.475 217.625 140.291 217.625Z"
      fill="#020202"
    />
    <path
      opacity="0.15"
      d="M140.291 222.29H113.27C113.086 222.29 112.91 222.217 112.78 222.087C112.65 221.957 112.577 221.781 112.577 221.597V221.034C112.579 220.852 112.652 220.677 112.782 220.548C112.912 220.419 113.087 220.347 113.27 220.347H140.291C140.474 220.347 140.649 220.419 140.779 220.548C140.909 220.677 140.983 220.852 140.984 221.034V221.603C140.984 221.786 140.911 221.963 140.781 222.093C140.651 222.223 140.475 222.296 140.291 222.296V222.29Z"
      fill="#020202"
    />
    <path
      opacity="0.15"
      d="M140.291 226.87H113.27C113.087 226.87 112.912 226.798 112.782 226.669C112.652 226.54 112.579 226.365 112.577 226.182V225.643C112.577 225.459 112.65 225.282 112.78 225.152C112.91 225.022 113.086 224.949 113.27 224.949H140.291C140.475 224.949 140.651 225.022 140.781 225.152C140.911 225.282 140.984 225.459 140.984 225.643V226.182C140.983 226.365 140.909 226.54 140.779 226.669C140.649 226.798 140.474 226.87 140.291 226.87Z"
      fill="#020202"
    />
    <path
      opacity="0.15"
      d="M140.291 231.49H125.553C125.37 231.49 125.193 231.416 125.063 231.286C124.933 231.156 124.86 230.98 124.86 230.796V230.262C124.859 230.17 124.876 230.079 124.91 229.993C124.944 229.908 124.995 229.83 125.059 229.765C125.124 229.699 125.201 229.647 125.285 229.611C125.37 229.576 125.461 229.558 125.553 229.558H140.297C140.48 229.558 140.657 229.631 140.787 229.761C140.917 229.891 140.99 230.067 140.99 230.251V230.785C140.99 230.876 140.972 230.966 140.937 231.05C140.902 231.134 140.851 231.211 140.787 231.275C140.722 231.339 140.646 231.391 140.562 231.425C140.478 231.46 140.388 231.478 140.297 231.478L140.291 231.49Z"
      fill="#020202"
    />
    <path
      d="M169.925 254.513C169.925 254.513 168.635 259.9 167.084 259.133C166.648 258.892 166.266 258.563 165.963 258.167C165.659 257.771 165.442 257.316 165.323 256.832L169.925 254.513Z"
      fill="url(#paint17_linear)"
    />
  </g>
  <defs>
    <linearGradient
      id="paint0_linear"
      x1="217.086"
      y1="233.183"
      x2="217.086"
      y2="320.392"
      gradientUnits="userSpaceOnUse"
    >
      <stop stop-opacity="0.4" />
      <stop offset="1" stop-color="white" stop-opacity="0" />
    </linearGradient>
    <linearGradient
      id="paint1_linear"
      x1="96.9304"
      y1="-22.3932"
      x2="385.785"
      y2="303.423"
      gradientUnits="userSpaceOnUse"
    >
      <stop offset="0.02" stop-color="white" stop-opacity="0" />
      <stop offset="1" stop-color="white" />
    </linearGradient>
    <linearGradient
      id="paint2_linear"
      x1="87920"
      y1="3557.88"
      x2="88097"
      y2="-35484.6"
      gradientUnits="userSpaceOnUse"
    >
      <stop offset="0.02" stop-color="white" stop-opacity="0" />
      <stop offset="1" stop-color="white" />
    </linearGradient>
    <linearGradient
      id="paint3_linear"
      x1="26342.9"
      y1="15222.3"
      x2="27923"
      y2="-63382.8"
      gradientUnits="userSpaceOnUse"
    >
      <stop offset="0.02" stop-color="white" stop-opacity="0" />
      <stop offset="1" stop-color="white" />
    </linearGradient>
    <linearGradient
      id="paint4_linear"
      x1="58119.8"
      y1="4643.21"
      x2="58278.1"
      y2="-21617.3"
      gradientUnits="userSpaceOnUse"
    >
      <stop offset="0.02" stop-color="white" stop-opacity="0" />
      <stop offset="1" stop-color="white" />
    </linearGradient>
    <linearGradient
      id="paint5_linear"
      x1="58071.4"
      y1="7488.32"
      x2="58229.8"
      y2="-18772.2"
      gradientUnits="userSpaceOnUse"
    >
      <stop offset="0.02" stop-color="white" stop-opacity="0" />
      <stop offset="1" stop-color="white" />
    </linearGradient>
    <linearGradient
      id="paint6_linear"
      x1="58817.7"
      y1="599.612"
      x2="58877.5"
      y2="-15546.1"
      gradientUnits="userSpaceOnUse"
    >
      <stop offset="0.02" stop-color="white" stop-opacity="0" />
      <stop offset="1" stop-color="white" />
    </linearGradient>
    <linearGradient
      id="paint7_linear"
      x1="304.375"
      y1="327.762"
      x2="188.472"
      y2="16.7434"
      gradientUnits="userSpaceOnUse"
    >
      <stop offset="0.58" />
      <stop offset="0.78" stop-opacity="0.16" />
    </linearGradient>
    <linearGradient
      id="paint8_linear"
      x1="20371.8"
      y1="-17825.9"
      x2="-39589.2"
      y2="25620.2"
      gradientUnits="userSpaceOnUse"
    >
      <stop offset="0.58" />
      <stop offset="0.78" stop-opacity="0.16" />
    </linearGradient>
    <linearGradient
      id="paint9_linear"
      x1="33819.7"
      y1="519.463"
      x2="-26145.2"
      y2="43977.3"
      gradientUnits="userSpaceOnUse"
    >
      <stop offset="0.58" />
      <stop offset="0.78" stop-opacity="0.16" />
    </linearGradient>
    <linearGradient
      id="paint10_linear"
      x1="255.186"
      y1="87.9024"
      x2="265.248"
      y2="87.9024"
      gradientUnits="userSpaceOnUse"
    >
      <stop stop-color="#ECC4D7" />
      <stop offset="0.42" stop-color="#EFD4D1" />
      <stop offset="1" stop-color="#F2EAC9" />
    </linearGradient>
    <linearGradient
      id="paint11_linear"
      x1="2310.35"
      y1="1569.59"
      x2="2350.06"
      y2="1569.59"
      gradientUnits="userSpaceOnUse"
    >
      <stop stop-color="#ECC4D7" />
      <stop offset="0.42" stop-color="#EFD4D1" />
      <stop offset="1" stop-color="#F2EAC9" />
    </linearGradient>
    <linearGradient
      id="paint12_linear"
      x1="248.612"
      y1="103.75"
      x2="258.106"
      y2="107.374"
      gradientUnits="userSpaceOnUse"
    >
      <stop stop-opacity="0" />
      <stop offset="0.91" stop-opacity="0.8" />
      <stop offset="1" />
    </linearGradient>
    <linearGradient
      id="paint13_linear"
      x1="239.102"
      y1="116.921"
      x2="268.395"
      y2="115.291"
      gradientUnits="userSpaceOnUse"
    >
      <stop offset="0.36" stop-color="#268BD2" />
      <stop offset="1" stop-color="#69B9EB" stop-opacity="0" />
    </linearGradient>
    <linearGradient
      id="paint14_linear"
      x1="3193.44"
      y1="2287.33"
      x2="3426.65"
      y2="2287.33"
      gradientUnits="userSpaceOnUse"
    >
      <stop stop-color="#ECC4D7" />
      <stop offset="0.42" stop-color="#EFD4D1" />
      <stop offset="1" stop-color="#F2EAC9" />
    </linearGradient>
    <linearGradient
      id="paint15_linear"
      x1="1578.4"
      y1="664.629"
      x2="1617.83"
      y2="664.629"
      gradientUnits="userSpaceOnUse"
    >
      <stop stop-color="#ECC4D7" />
      <stop offset="0.42" stop-color="#EFD4D1" />
      <stop offset="1" stop-color="#F2EAC9" />
    </linearGradient>
    <linearGradient
      id="paint16_linear"
      x1="2061.47"
      y1="1841.65"
      x2="1842.95"
      y2="1849.34"
      gradientUnits="userSpaceOnUse"
    >
      <stop offset="0.36" stop-color="#268BD2" />
      <stop offset="1" stop-color="#69B9EB" stop-opacity="0" />
    </linearGradient>
    <linearGradient
      id="paint17_linear"
      x1="1526.53"
      y1="2358.84"
      x2="1504.38"
      y2="2416.58"
      gradientUnits="userSpaceOnUse"
    >
      <stop stop-opacity="0" />
      <stop offset="0.91" stop-opacity="0.8" />
      <stop offset="1" />
    </linearGradient>
    <clipPath id="clip0">
      <rect width="468" height="322" fill="white" />
    </clipPath>
  </defs>
</svg>
