<svg width="256" height="256" viewBox="0 0 256 256" fill="none" xmlns="http://www.w3.org/2000/svg">
<g clip-path="url(#clip0)">
<path fill-rule="evenodd" clip-rule="evenodd" d="M152 2.09815e-06H216C220.418 2.09815e-06 224 3.58172 224 8V40C224 44.4183 220.418 48 216 48H152L152 176C152 180.418 148.418 184 144 184H112C107.582 184 104 180.418 104 176L104 48H40C35.5817 48 32 44.4183 32 40V8C32 3.58173 35.5817 2.09815e-06 40 2.09815e-06H104V0L152 2.09815e-06Z" fill="#1270AF"/>
<path fill-rule="evenodd" clip-rule="evenodd" d="M152 2.09815e-06H216C220.418 2.09815e-06 224 3.58172 224 8V40C224 44.4183 220.418 48 216 48H152L152 176C152 180.418 148.418 184 144 184H112C107.582 184 104 180.418 104 176L104 48H40C35.5817 48 32 44.4183 32 40V8C32 3.58173 35.5817 2.09815e-06 40 2.09815e-06H104V0L152 2.09815e-06Z" fill="url(#paint0_linear)"/>
<path fill-rule="evenodd" clip-rule="evenodd" d="M173 184H211C215.986 184 219.977 186.983 218.552 191.957C205.386 229.266 169.815 256 128 256C74.9807 256 32 213.019 32 160C32 106.981 74.9807 64 128 64C169.815 64 205.386 90.7342 218.552 128.043C219.977 133.017 215.986 136 211 136H173C170.578 136 169.459 135.406 168.7 134.542C168.277 133.867 167.838 133.204 167.383 132.552C167.265 132.369 167.138 132.185 167 132H166.992C158.278 119.887 144.06 112 128 112C101.49 112 80 133.49 80 160C80 186.51 101.49 208 128 208C144.06 208 158.278 200.113 166.992 188H167C167.138 187.815 167.265 187.631 167.383 187.448C167.838 186.796 168.277 186.133 168.7 185.458C169.459 184.594 170.578 184 173 184Z" fill="#40ABF2"/>
<path fill-rule="evenodd" clip-rule="evenodd" d="M173 184H211C215.986 184 219.977 186.983 218.552 191.957C205.386 229.266 169.815 256 128 256C74.9807 256 32 213.019 32 160C32 106.981 74.9807 64 128 64C169.815 64 205.386 90.7342 218.552 128.043C219.977 133.017 215.986 136 211 136H173C170.578 136 169.459 135.406 168.7 134.542C168.277 133.867 167.838 133.204 167.383 132.552C167.265 132.369 167.138 132.185 167 132H166.992C158.278 119.887 144.06 112 128 112C101.49 112 80 133.49 80 160C80 186.51 101.49 208 128 208C144.06 208 158.278 200.113 166.992 188H167C167.138 187.815 167.265 187.631 167.383 187.448C167.838 186.796 168.277 186.133 168.7 185.458C169.459 184.594 170.578 184 173 184Z" fill="url(#paint1_angular)"/>
</g>
<defs>
<linearGradient id="paint0_linear" x1="128" y1="0" x2="128" y2="184" gradientUnits="userSpaceOnUse">
<stop stop-color="#1270AF"/>
<stop offset="1" stop-color="#3D82B1"/>
</linearGradient>
<radialGradient id="paint1_angular" cx="0" cy="0" r="1" gradientUnits="userSpaceOnUse" gradientTransform="translate(128 160) scale(96.0248 93.0234)">
<stop offset="0.0312318" stop-color="#2C91D5"/>
<stop offset="0.968253" stop-color="#2AA1F1"/>
</radialGradient>
<clipPath id="clip0">
<rect width="256" height="256" fill="white"/>
</clipPath>
</defs>
</svg>
