<svg version="1.1" xmlns="http://www.w3.org/2000/svg" viewBox="0 0 1065.132267101716 623.3129839215951" width="2130.264534203432" height="1246.6259678431902">
  <!-- svg-source:excalidraw -->
  
  <defs>
    <style>
      @font-face {
        font-family: "Virgil";
        src: url("https://excalidraw.com/Virgil.woff2");
      }
      @font-face {
        font-family: "Cascadia";
        src: url("https://excalidraw.com/Cascadia.woff2");
      }
    </style>
  </defs>
  <rect x="0" y="0" width="1065.132267101716" height="623.3129839215951" fill="#ffffff"></rect><g stroke-linecap="round" transform="translate(68.25102843681685 206.4370073590951) rotate(0 218.41091918945312 203.43798828125)"><path d="M-0.75 -0.12 C105.99 1.32, 211.11 1.3, 437.24 0.57 M-0.3 0.36 C141.85 -1.37, 283.08 -1.47, 436.52 0.18 M436.53 0.3 C437.41 145.64, 438.04 290.65, 437.36 407.14 M436.91 0.1 C436.72 109.01, 436.83 218.11, 436.9 406.79 M436.4 407.46 C326.04 409.51, 215.5 409.37, 0.56 407.56 M436.59 406.8 C327.62 409.21, 219.07 408.98, 0 406.5 M0.75 406.28 C0.06 303.47, -0.84 200.28, 0.25 -0.97 M0.48 406.6 C-1.85 322.91, -2.25 239.57, -0.07 0.55" stroke="#495057" stroke-width="1" fill="none"></path></g><g transform="translate(84.6459869329106 225.8392290387826) rotate(0 201.5 185.5)"><text x="0" y="15.526315789473685" font-family="Cascadia, Segoe UI Emoji" font-size="16px" fill="#495057" text-anchor="start" style="white-space: pre;" direction="ltr">/** Represents a point */</text><text x="0" y="35.05263157894737" font-family="Cascadia, Segoe UI Emoji" font-size="16px" fill="#495057" text-anchor="start" style="white-space: pre;" direction="ltr">class Point {</text><text x="0" y="54.578947368421055" font-family="Cascadia, Segoe UI Emoji" font-size="16px" fill="#495057" text-anchor="start" style="white-space: pre;" direction="ltr">    field int x, y;</text><text x="0" y="74.10526315789474" font-family="Cascadia, Segoe UI Emoji" font-size="16px" fill="#495057" text-anchor="start" style="white-space: pre;" direction="ltr"></text><text x="0" y="93.63157894736842" font-family="Cascadia, Segoe UI Emoji" font-size="16px" fill="#495057" text-anchor="start" style="white-space: pre;" direction="ltr">    /** Constructs a new point */</text><text x="0" y="113.15789473684211" font-family="Cascadia, Segoe UI Emoji" font-size="16px" fill="#495057" text-anchor="start" style="white-space: pre;" direction="ltr">    constructor Point new(int ax, int ay) {</text><text x="0" y="132.68421052631578" font-family="Cascadia, Segoe UI Emoji" font-size="16px" fill="#495057" text-anchor="start" style="white-space: pre;" direction="ltr">        let x = ax; let y = ay;</text><text x="0" y="152.21052631578948" font-family="Cascadia, Segoe UI Emoji" font-size="16px" fill="#495057" text-anchor="start" style="white-space: pre;" direction="ltr">        return this;</text><text x="0" y="171.73684210526318" font-family="Cascadia, Segoe UI Emoji" font-size="16px" fill="#495057" text-anchor="start" style="white-space: pre;" direction="ltr">    }</text><text x="0" y="191.26315789473685" font-family="Cascadia, Segoe UI Emoji" font-size="16px" fill="#495057" text-anchor="start" style="white-space: pre;" direction="ltr"></text><text x="0" y="210.78947368421052" font-family="Cascadia, Segoe UI Emoji" font-size="16px" fill="#495057" text-anchor="start" style="white-space: pre;" direction="ltr">    /** Returns the sum of this</text><text x="0" y="230.31578947368422" font-family="Cascadia, Segoe UI Emoji" font-size="16px" fill="#495057" text-anchor="start" style="white-space: pre;" direction="ltr">     *  point and the other one. */</text><text x="0" y="249.84210526315792" font-family="Cascadia, Segoe UI Emoji" font-size="16px" fill="#495057" text-anchor="start" style="white-space: pre;" direction="ltr">    method Point plus(Point other) {</text><text x="0" y="269.36842105263156" font-family="Cascadia, Segoe UI Emoji" font-size="16px" fill="#495057" text-anchor="start" style="white-space: pre;" direction="ltr">        return Point.new(x + other.getx();,</text><text x="0" y="288.89473684210526" font-family="Cascadia, Segoe UI Emoji" font-size="16px" fill="#495057" text-anchor="start" style="white-space: pre;" direction="ltr">                         y + other.gety());</text><text x="0" y="308.42105263157896" font-family="Cascadia, Segoe UI Emoji" font-size="16px" fill="#495057" text-anchor="start" style="white-space: pre;" direction="ltr">    }</text><text x="0" y="327.94736842105266" font-family="Cascadia, Segoe UI Emoji" font-size="16px" fill="#495057" text-anchor="start" style="white-space: pre;" direction="ltr"></text><text x="0" y="347.47368421052636" font-family="Cascadia, Segoe UI Emoji" font-size="16px" fill="#495057" text-anchor="start" style="white-space: pre;" direction="ltr">    // More point methods...</text><text x="0" y="367" font-family="Cascadia, Segoe UI Emoji" font-size="16px" fill="#495057" text-anchor="start" style="white-space: pre;" direction="ltr">}</text></g><g transform="translate(582.0148572593612 111.46907479422339) rotate(0 65.99999999999994 185.5)"><text x="0" y="15.526315789473685" font-family="Cascadia, Segoe UI Emoji" font-size="16px" fill="#495057" text-anchor="start" style="white-space: pre;" direction="ltr">...</text><text x="0" y="35.05263157894737" font-family="Cascadia, Segoe UI Emoji" font-size="16px" fill="#495057" text-anchor="start" style="white-space: pre;" direction="ltr">push 1</text><text x="0" y="54.578947368421055" font-family="Cascadia, Segoe UI Emoji" font-size="16px" fill="#495057" text-anchor="start" style="white-space: pre;" direction="ltr">push 2</text><text x="0" y="74.10526315789474" font-family="Cascadia, Segoe UI Emoji" font-size="16px" fill="#495057" text-anchor="start" style="white-space: pre;" direction="ltr">call Point.new</text><text x="0" y="93.63157894736842" font-family="Cascadia, Segoe UI Emoji" font-size="16px" fill="#495057" text-anchor="start" style="white-space: pre;" direction="ltr">pop p1</text><text x="0" y="113.15789473684211" font-family="Cascadia, Segoe UI Emoji" font-size="16px" fill="#495057" text-anchor="start" style="white-space: pre;" direction="ltr">//</text><text x="0" y="132.68421052631578" font-family="Cascadia, Segoe UI Emoji" font-size="16px" fill="#495057" text-anchor="start" style="white-space: pre;" direction="ltr">push 3</text><text x="0" y="152.21052631578948" font-family="Cascadia, Segoe UI Emoji" font-size="16px" fill="#495057" text-anchor="start" style="white-space: pre;" direction="ltr">push 4</text><text x="0" y="171.73684210526318" font-family="Cascadia, Segoe UI Emoji" font-size="16px" fill="#495057" text-anchor="start" style="white-space: pre;" direction="ltr">call Point.new</text><text x="0" y="191.26315789473685" font-family="Cascadia, Segoe UI Emoji" font-size="16px" fill="#495057" text-anchor="start" style="white-space: pre;" direction="ltr">pop p2</text><text x="0" y="210.78947368421052" font-family="Cascadia, Segoe UI Emoji" font-size="16px" fill="#495057" text-anchor="start" style="white-space: pre;" direction="ltr">//</text><text x="0" y="230.31578947368422" font-family="Cascadia, Segoe UI Emoji" font-size="16px" fill="#495057" text-anchor="start" style="white-space: pre;" direction="ltr">push p1</text><text x="0" y="249.84210526315792" font-family="Cascadia, Segoe UI Emoji" font-size="16px" fill="#495057" text-anchor="start" style="white-space: pre;" direction="ltr">push p2</text><text x="0" y="269.36842105263156" font-family="Cascadia, Segoe UI Emoji" font-size="16px" fill="#495057" text-anchor="start" style="white-space: pre;" direction="ltr">call plus</text><text x="0" y="288.89473684210526" font-family="Cascadia, Segoe UI Emoji" font-size="16px" fill="#495057" text-anchor="start" style="white-space: pre;" direction="ltr">pop p3</text><text x="0" y="308.42105263157896" font-family="Cascadia, Segoe UI Emoji" font-size="16px" fill="#495057" text-anchor="start" style="white-space: pre;" direction="ltr">//</text><text x="0" y="327.94736842105266" font-family="Cascadia, Segoe UI Emoji" font-size="16px" fill="#495057" text-anchor="start" style="white-space: pre;" direction="ltr">push p3</text><text x="0" y="347.47368421052636" font-family="Cascadia, Segoe UI Emoji" font-size="16px" fill="#495057" text-anchor="start" style="white-space: pre;" direction="ltr">call print</text><text x="0" y="367" font-family="Cascadia, Segoe UI Emoji" font-size="16px" fill="#495057" text-anchor="start" style="white-space: pre;" direction="ltr">...</text></g><g stroke-linecap="round" transform="translate(556.4969332684757 102.74327523367651) rotate(0 91.12340291341144 202.6338450113932)"><path d="M-1.4 -1.69 C52.57 0.75, 106.04 0.95, 183.52 1.4 M-0.94 -0.41 C50.95 0.2, 102.49 1.56, 182.52 0.75 M182.31 -0.83 C181.33 148.07, 181.19 295.34, 181.81 404.36 M182.69 0.54 C182.9 126.44, 182.45 253.13, 182.5 405.64 M182.41 403.58 C129.72 403.36, 75.25 406.66, -1.61 405 M181.68 405.51 C141.64 405.92, 101.26 407.03, -0.46 406.05 M-0.24 404.17 C-1.15 302.59, 0.66 200.03, 0.41 0.56 M0.28 404.99 C0.38 268.06, 0.31 129.79, 0.41 0.49" stroke="#495057" stroke-width="1" fill="none"></path></g><g transform="translate(878.2086119096587 104.60851905459367) rotate(0 80 195)"><text x="0" y="15.5" font-family="Cascadia, Segoe UI Emoji" font-size="16px" fill="#495057" text-anchor="start" style="white-space: pre;" direction="ltr">...</text><text x="0" y="35" font-family="Cascadia, Segoe UI Emoji" font-size="16px" fill="#495057" text-anchor="start" style="white-space: pre;" direction="ltr">// push 1</text><text x="0" y="54.5" font-family="Cascadia, Segoe UI Emoji" font-size="16px" fill="#495057" text-anchor="start" style="white-space: pre;" direction="ltr">@1</text><text x="0" y="74" font-family="Cascadia, Segoe UI Emoji" font-size="16px" fill="#495057" text-anchor="start" style="white-space: pre;" direction="ltr">D=A</text><text x="0" y="93.5" font-family="Cascadia, Segoe UI Emoji" font-size="16px" fill="#495057" text-anchor="start" style="white-space: pre;" direction="ltr">@SP</text><text x="0" y="113" font-family="Cascadia, Segoe UI Emoji" font-size="16px" fill="#495057" text-anchor="start" style="white-space: pre;" direction="ltr">A=M</text><text x="0" y="132.5" font-family="Cascadia, Segoe UI Emoji" font-size="16px" fill="#495057" text-anchor="start" style="white-space: pre;" direction="ltr">M=D</text><text x="0" y="152" font-family="Cascadia, Segoe UI Emoji" font-size="16px" fill="#495057" text-anchor="start" style="white-space: pre;" direction="ltr">@SP</text><text x="0" y="171.5" font-family="Cascadia, Segoe UI Emoji" font-size="16px" fill="#495057" text-anchor="start" style="white-space: pre;" direction="ltr">M=M+1</text><text x="0" y="191" font-family="Cascadia, Segoe UI Emoji" font-size="16px" fill="#495057" text-anchor="start" style="white-space: pre;" direction="ltr">// push 2</text><text x="0" y="210.5" font-family="Cascadia, Segoe UI Emoji" font-size="16px" fill="#495057" text-anchor="start" style="white-space: pre;" direction="ltr">@2</text><text x="0" y="230" font-family="Cascadia, Segoe UI Emoji" font-size="16px" fill="#495057" text-anchor="start" style="white-space: pre;" direction="ltr">D=A</text><text x="0" y="249.5" font-family="Cascadia, Segoe UI Emoji" font-size="16px" fill="#495057" text-anchor="start" style="white-space: pre;" direction="ltr">@SP</text><text x="0" y="269" font-family="Cascadia, Segoe UI Emoji" font-size="16px" fill="#495057" text-anchor="start" style="white-space: pre;" direction="ltr">A=M</text><text x="0" y="288.5" font-family="Cascadia, Segoe UI Emoji" font-size="16px" fill="#495057" text-anchor="start" style="white-space: pre;" direction="ltr">M=D</text><text x="0" y="308" font-family="Cascadia, Segoe UI Emoji" font-size="16px" fill="#495057" text-anchor="start" style="white-space: pre;" direction="ltr">@SP</text><text x="0" y="327.5" font-family="Cascadia, Segoe UI Emoji" font-size="16px" fill="#495057" text-anchor="start" style="white-space: pre;" direction="ltr">M=M+1</text><text x="0" y="347" font-family="Cascadia, Segoe UI Emoji" font-size="16px" fill="#495057" text-anchor="start" style="white-space: pre;" direction="ltr">// call Point.new</text><text x="0" y="366.5" font-family="Cascadia, Segoe UI Emoji" font-size="16px" fill="#495057" text-anchor="start" style="white-space: pre;" direction="ltr">goto Point.new</text><text x="0" y="386" font-family="Cascadia, Segoe UI Emoji" font-size="16px" fill="#495057" text-anchor="start" style="white-space: pre;" direction="ltr">...</text></g><g stroke-linecap="round" transform="translate(858.2857501746325 100.57028561546645) rotate(0 98.42325846354174 205.58372497558582)"><path d="M-0.35 -1.52 C74.1 0.23, 147.76 1.1, 195.89 0.17 M-0.86 -0.37 C71.98 1.3, 142.8 2.43, 197.24 -0.08 M197.25 0.54 C198.25 112.46, 198.79 227.87, 196.5 411.49 M197.08 -0.49 C197.53 99.41, 198.23 199.11, 197.1 411.11 M197.93 410.6 C150.19 410.01, 102.29 410.08, 1.21 409.92 M196.2 410.87 C122 412.22, 47.93 412.07, -0.63 411.62 M-0.49 411.47 C-1.37 307.48, -2.17 205.83, -0.16 0.74 M-0.22 411.03 C-1.28 251.91, -1.3 92, -0.17 -0.45" stroke="#495057" stroke-width="1" fill="none"></path></g><g transform="translate(33.821340936816796 67.24011811755895) rotate(0 150.00000000000003 127)"><text x="0" y="15.53846153846154" font-family="Cascadia, Segoe UI Emoji" font-size="16px" fill="#495057" text-anchor="start" style="white-space: pre;" direction="ltr">class Main {</text><text x="0" y="35.07692307692308" font-family="Cascadia, Segoe UI Emoji" font-size="16px" fill="#495057" text-anchor="start" style="white-space: pre;" direction="ltr">    function void main() {</text><text x="0" y="54.61538461538462" font-family="Cascadia, Segoe UI Emoji" font-size="16px" fill="#495057" text-anchor="start" style="white-space: pre;" direction="ltr">        var Point p1, p2, p3;</text><text x="0" y="74.15384615384616" font-family="Cascadia, Segoe UI Emoji" font-size="16px" fill="#495057" text-anchor="start" style="white-space: pre;" direction="ltr">        let p1 = Point.new(1,2);</text><text x="0" y="93.69230769230771" font-family="Cascadia, Segoe UI Emoji" font-size="16px" fill="#495057" text-anchor="start" style="white-space: pre;" direction="ltr">        let p2 = Point.new(3,4);</text><text x="0" y="113.23076923076924" font-family="Cascadia, Segoe UI Emoji" font-size="16px" fill="#495057" text-anchor="start" style="white-space: pre;" direction="ltr">        pet p3 = p1.plus(p2);</text><text x="0" y="132.76923076923077" font-family="Cascadia, Segoe UI Emoji" font-size="16px" fill="#495057" text-anchor="start" style="white-space: pre;" direction="ltr"></text><text x="0" y="152.30769230769232" font-family="Cascadia, Segoe UI Emoji" font-size="16px" fill="#495057" text-anchor="start" style="white-space: pre;" direction="ltr"></text><text x="0" y="171.84615384615387" font-family="Cascadia, Segoe UI Emoji" font-size="16px" fill="#495057" text-anchor="start" style="white-space: pre;" direction="ltr"></text><text x="0" y="191.38461538461542" font-family="Cascadia, Segoe UI Emoji" font-size="16px" fill="#495057" text-anchor="start" style="white-space: pre;" direction="ltr"></text><text x="0" y="210.92307692307693" font-family="Cascadia, Segoe UI Emoji" font-size="16px" fill="#495057" text-anchor="start" style="white-space: pre;" direction="ltr"></text><text x="0" y="230.46153846153848" font-family="Cascadia, Segoe UI Emoji" font-size="16px" fill="#495057" text-anchor="start" style="white-space: pre;" direction="ltr"></text><text x="0" y="250.00000000000003" font-family="Cascadia, Segoe UI Emoji" font-size="16px" fill="#495057" text-anchor="start" style="white-space: pre;" direction="ltr">}</text></g><g stroke-linecap="round"><g transform="translate(353.8031321152021 205.77315848214266) rotate(0 0.13758148280703608 -83.04094113782048)"><path d="M0.94 0.38 C-2.23 -44.44, -1.28 -85.56, 1.32 -166.46 M-0.67 0.16 C0.15 -51.16, 0.59 -101.93, -0.38 -164.96" stroke="#495057" stroke-width="1" fill="none"></path></g></g><g stroke-linecap="round"><g transform="translate(353.01201476494185 40.278519403366545) rotate(0 -171.76689347339774 -0.023905551935968106)"><path d="M-0.52 -0.6 C-95.04 -0.45, -188.21 1.25, -342.66 -0.67 M-0.59 0.57 C-81.92 0.14, -163.77 0.18, -343.01 0.62" stroke="#495057" stroke-width="1" fill="none"></path></g></g><g stroke-linecap="round"><g transform="translate(11.678803501920925 38.74933442615293) rotate(0 -0.5136238651002714 154.47080071072344)"><path d="M-1.21 -0.27 C0.62 105.48, 0.42 210.1, -0.47 309.19 M-0.38 -0.1 C-1.05 78.11, -0.81 155.56, 0.02 309.21" stroke="#495057" stroke-width="1" fill="none"></path></g></g><g stroke-linecap="round"><g transform="translate(12.827383417285546 346.8181820824029) rotate(0 27.629961472004652 -0.12724132596065374)"><path d="M-0.79 -0.9 C15.82 -0.2, 32.38 1.85, 56.05 -0.31 M0.12 0.07 C11.22 -0.48, 21.28 -1.19, 55.3 0.21" stroke="#495057" stroke-width="1" fill="none"></path></g></g><g stroke-linecap="round"><g transform="translate(442.49674725657127 271.7967180524547) rotate(0 44.85281808035711 0)"><path d="M0 0 C19.4 0, 38.79 0, 89.71 0 M0 0 C29.56 0, 59.12 0, 89.71 0" stroke="#1864ab" stroke-width="4" fill="none"></path></g><g transform="translate(442.49674725657127 271.7967180524547) rotate(0 44.85281808035711 0)"><path d="M61.51 10.26 C67.61 8.04, 73.71 5.82, 89.71 0 M61.51 10.26 C70.8 6.88, 80.09 3.5, 89.71 0" stroke="#1864ab" stroke-width="4" fill="none"></path></g><g transform="translate(442.49674725657127 271.7967180524547) rotate(0 44.85281808035711 0)"><path d="M61.51 -10.26 C67.61 -8.04, 73.71 -5.82, 89.71 0 M61.51 -10.26 C70.8 -6.88, 80.09 -3.5, 89.71 0" stroke="#1864ab" stroke-width="4" fill="none"></path></g></g><g transform="translate(424.49268405902666 214.675676618303) rotate(0 68.5 23)"><text x="0" y="32" font-family="Virgil, Segoe UI Emoji" font-size="36px" fill="#1864ab" text-anchor="start" style="white-space: pre;" direction="ltr">Compiler</text></g><g transform="translate(674.9172271672853 300.14852469308016) rotate(0 93.5 45.5)"><text x="0" y="32.5" font-family="Virgil, Segoe UI Emoji" font-size="36px" fill="#1864ab" text-anchor="start" style="white-space: pre;" direction="ltr">VM</text><text x="0" y="78" font-family="Virgil, Segoe UI Emoji" font-size="36px" fill="#1864ab" text-anchor="start" style="white-space: pre;" direction="ltr">translator</text></g><g stroke-linecap="round"><g transform="translate(683.8199894440713 415.09906877790127) rotate(0 79.81889997209822 -0.184326171875)"><path d="M0 0 C60.94 -0.14, 121.87 -0.28, 159.64 -0.37 M0 0 C36.47 -0.08, 72.94 -0.17, 159.64 -0.37" stroke="#1864ab" stroke-width="4" fill="none"></path></g><g transform="translate(683.8199894440713 415.09906877790127) rotate(0 79.81889997209822 -0.184326171875)"><path d="M131.47 9.96 C142.22 6.02, 152.97 2.07, 159.64 -0.37 M131.47 9.96 C137.91 7.6, 144.34 5.24, 159.64 -0.37" stroke="#1864ab" stroke-width="4" fill="none"></path></g><g transform="translate(683.8199894440713 415.09906877790127) rotate(0 79.81889997209822 -0.184326171875)"><path d="M131.42 -10.56 C142.19 -6.67, 152.96 -2.78, 159.64 -0.37 M131.42 -10.56 C137.87 -8.24, 144.31 -5.91, 159.64 -0.37" stroke="#1864ab" stroke-width="4" fill="none"></path></g></g><g transform="translate(600.5751861516605 61.237601143972825) rotate(0 41.5 12.5)"><text x="0" y="18" font-family="Virgil, Segoe UI Emoji" font-size="20px" fill="#5c940d" text-anchor="start" style="white-space: pre;" direction="ltr">VM Code</text></g><g transform="translate(891.0631186293388 62.81110491071422) rotate(0 69 12.5)"><text x="0" y="18" font-family="Virgil, Segoe UI Emoji" font-size="20px" fill="#5c940d" text-anchor="start" style="white-space: pre;" direction="ltr">assembly code</text></g><g transform="translate(175.84522312152643 10) rotate(0 106.5 12.5)"><text x="0" y="18" font-family="Virgil, Segoe UI Emoji" font-size="20px" fill="#5c940d" text-anchor="start" style="white-space: pre;" direction="ltr">Jack code (high level)</text></g></svg>